<!-- Generator: Adobe Illustrator 19.0.0, SVG Export Plug-In  -->
<svg version="1.1"
	 xmlns="http://www.w3.org/2000/svg" xmlns:xlink="http://www.w3.org/1999/xlink" xmlns:a="http://ns.adobe.com/AdobeSVGViewerExtensions/3.0/"
	 x="0px" y="0px" width="652.3px" height="698px" viewBox="0 0 652.3 698" overflow="scroll" enable-background="new 0 0 652.3 698"
	 xml:space="preserve">
<defs>
</defs>
<g id="XMLID_21_">
	<path id="XMLID_26_" d="M107.7,695l5.7-9v-5.3l-5.7-8.7l7.7-13c0,0-15-73.7-13.7-108.3c0,0-1.3-43.7,10.7-97.3L112,436l3.3-2.3
		c0,0-6-16-10.3-37c0,0-5-41.3-9-51.7v-17c0,0,3-14.3,6-27l-0.7-15l-3.3-5l1.7-16.3l2.7-4.3V251l1.7-2l-1-3.7l-2-3l-0.3-26.3
		c0,0,6-14.7,9-21.7c0,0,0-7,5.7-14.7c0,0,6-13.3,13.3-20.7v-20.7l3-1.7l-7-8L72.3,154c0,0-2,2-9.3-3.7c0,0-23.3,4.7-20.7,54
		c0,0-2.3,14.3-22.7,15.7c0,0-17.3,0-19.7-23.7c0,0-1-30,58.3-54.3l2-1l-0.3-9l56.7-25.3h5L121,97l4-2.7h4.3l0.7-6l6.7-4.3h4
		l1.7-3.7l6-3.7h3.7V71l9-3.3h4.3l5,5.3v4.3l4.7,0.3l3,2h2.3l11-5L177,53.3l5.7-37.7L218,0h14.3l55,87.3l-8,32.3l-37.7,18.7l-11-1.7
		L204,94l-2.7-0.7l-9,5c0,0-9.7,20.7-8.3,38.3c0,0-8,3.3-7.3,28.7l-3,5c0,0,6.3,40,7.7,56c0,0-0.3,10.7-12,35.3c0,0,10.3,23.3,13,35
		l4.3,2.3l0.7-18.3l5.3,5.3l0.7,11.3l1.3,4.3l6.3-0.3c0,0-1-13,20.3-22c0,0,11-4,22.3,0.3c0,0,16,5.7,17.7,19l5.7,0.3l19-24.7
		l-0.7,33.7l-8.7,12l2.7,1.7v5L275,326l2,2l2,6.7l3.3,4.7l5,4.7l5.7,3.5c0,0,7.3,0.2,37.7,15.8c0,0-18.7-9-30-8.7
		c0,0,21.7,16.7,41,20.7c0,0,4.3,1.3,17,3c0,0-63.3-0.7-77-1.7c0,0,5.3,4,9.7,4c0,0,46.7,1,13.3,13c0,0,15.7,9.7,22,28
		c0,0-12.7-17.3-29.7-13.3c0,0-9.3,27,32.3,31.3c0,0,20.7,11,20.7,48c0,0,1,13-9.3,30.7v8c0,0,12.3,17,60,12
		c0,0,73.3-6.7,126.3-46.3c0,0,81.7-32.7,125.3,44.3c0,0-45.7-15.3-81.7,7c0,0-11,19.7-11,39.3c0,0-24.3,50-30,56.3
		c0,0-23.7,19-25,43.3l-12,15.7H107.3L107.7,695z"/>
	<circle id="XMLID_25_" fill="#FFFFFF" cx="190.5" cy="505.8" r="21.5"/>
	<path id="XMLID_24_" fill="#FFFFFF" d="M288.7,540c0,0-10,0.3-11.3-20.7c0,0,1-16.3,15-18c0,0,13,0.3,13.3,16
		C305.7,517.3,308,537,288.7,540z"/>
	<path id="XMLID_23_" fill="#FFFFFF" d="M175.3,370c0,0-1.7-16.7,24-13.7c0,0,19.3,3,18.7,18c0,0,5.7,13.3-16.3,16.7
		C201.7,391,178.3,391.7,175.3,370z"/>
	<path id="XMLID_22_" fill="#FFFFFF" d="M40.3,160.7c0,0-29.7,8.3-29.3,39c0,0,7.7,29.3,22,2C33,201.7,33.3,166,40.3,160.7z"/>
</g>
</svg>
